Christian Faure - Les Hauts Murs AKA Behind the Walls (2008) XviD FRENCH

A young runaway rejects society's condemnation and dares to fulfill his dreams. France, 1930s. 14-year-old orphan Yves Tréguier sees the world through the bars of "educational homes" where he is raised in conditions worthy of a penal colony, and dreams of a dramatic escape across the ocean to New York. Written by The Film Catalogue
 
http://www.imdb.com/title/tt0922455/

General 
Complete name : C:UsersLes.hauts.murs.avi 
Format : AVI 
Format/Info : Audio Video Interleave 
File size : 702 MiB 
Duration : 1h 31mn 
Overall bit rate : 1 074 Kbps 
Writing application : Nandub v1.0rc2 
Writing library : Nandub build 1853/release 

Video 
ID : 0 
Format : MPEG-4 Visual 
Format profile : AdvancedSimple@L5 
Format settings, BVOP : Yes 
Format settings, QPel : No 
Format settings, GMC : No warppoints 
Format settings, Matrix : Default (H.263) 
Muxing mode : Packed bitstream 
Codec ID : XVID 
Codec ID/Hint : XviD 
Duration : 1h 31mn 
Bit rate : 930 Kbps 
Width : 608 pixels 
Height : 336 pixels 
Display aspect ratio : 16:9 
Frame rate : 25.000 fps 
Resolution : 24 bits 
Colorimetry : 4:2:0 
Scan type : Progressive 
Bits/(Pixel*Frame) : 0.182 
Stream size : 608 MiB (87%) 
Writing library : XviD 1.2.0.dev47 (UTC 2006-11-01) 

Audio 
ID : 1 
Format : MPEG Audio 
Format version : Version 1 
Format profile : Layer 3 
Codec ID : 55 
Codec ID/Hint : MP3 
Duration : 1h 31mn 
Bit rate mode : Constant 
Bit rate : 128 Kbps 
Channel(s) : 2 channels 
Sampling rate : 48.0 KHz 
Resolution : 16 bits 
Stream size : 86.1 MiB (12%) 
Alignment : Aligned on interleaves 
Interleave, duration : 24 ms (0.60 video frame) 
Interleave, preload duration : 466 ms 
Writing library : LAME3.90.3 